<svg width="25" height="24" viewBox="0 0 25 24" fill="none" xmlns="http://www.w3.org/2000/svg">
<path d="M12.25 10V16" stroke="#7030F1" stroke-width="1.5" stroke-linecap="round" stroke-linejoin="round"/>
<path d="M9.25 13H15.25" stroke="#7030F1" stroke-width="1.5" stroke-linecap="round" stroke-linejoin="round"/>
<path d="M20.25 20C20.7804 20 21.2891 19.7893 21.6642 19.4142C22.0393 19.0391 22.25 18.5304 22.25 18V8C22.25 7.46957 22.0393 6.96086 21.6642 6.58579C21.2891 6.21071 20.7804 6 20.25 6H12.35C12.0155 6.00328 11.6855 5.92261 11.3903 5.76538C11.0951 5.60815 10.844 5.37938 10.66 5.1L9.85 3.9C9.66789 3.62347 9.41997 3.39648 9.1285 3.2394C8.83702 3.08231 8.51111 3.00005 8.18 3H4.25C3.71957 3 3.21086 3.21071 2.83579 3.58579C2.46071 3.96086 2.25 4.46957 2.25 5V18C2.25 18.5304 2.46071 19.0391 2.83579 19.4142C3.21086 19.7893 3.71957 20 4.25 20H20.25Z" stroke="#7030F1" stroke-width="1.5" stroke-linecap="round" stroke-linejoin="round"/>
</svg>
