<svg width="34" height="34" viewBox="0 0 34 34" fill="none" xmlns="http://www.w3.org/2000/svg">
<path d="M11.1923 28.3332C13.8961 29.7202 17.0064 30.0959 19.9627 29.3926C22.919 28.6893 25.5269 26.9532 27.3165 24.4972C29.106 22.0411 29.9595 19.0267 29.7231 15.9971C29.4868 12.9675 28.1761 10.1219 26.0274 7.97318C23.8786 5.82441 21.033 4.51376 18.0034 4.27741C14.9738 4.04106 11.9594 4.89455 9.5034 6.68409C7.04739 8.47362 5.3113 11.0815 4.60797 14.0378C3.90464 16.9941 4.28032 20.1044 5.66732 22.8082L2.83398 31.1666L11.1923 28.3332Z" stroke="black" stroke-width="1.5" stroke-linecap="round" stroke-linejoin="round"/>
<path d="M11.334 17H11.3482" stroke="black" stroke-width="1.5" stroke-linecap="round" stroke-linejoin="round"/>
<path d="M17 17H17.0142" stroke="black" stroke-width="1.5" stroke-linecap="round" stroke-linejoin="round"/>
<path d="M22.666 17H22.6802" stroke="black" stroke-width="1.5" stroke-linecap="round" stroke-linejoin="round"/>
</svg>
