<svg width="45" height="45" viewBox="0 0 45 45" fill="none" xmlns="http://www.w3.org/2000/svg">
<path d="M18.0879 7.85648V15.2031L18.8644 15.9895C19.2925 16.4176 19.8599 17.1244 20.1287 17.5425C20.4074 17.9705 20.6464 18.319 20.6762 18.319C20.7061 18.319 20.716 15.1832 20.7061 11.3506C20.6862 5.63657 20.7061 4.38227 20.8056 4.38227C20.9151 4.38227 28.6801 7.21938 29.8648 7.68725L30.1336 7.7868V20.4692V33.1516L25.7832 33.1715L21.4229 33.2013L22.4383 33.4801C22.9958 33.6394 23.6727 33.8783 23.9515 33.9977C24.5189 34.2665 25.3452 34.9932 25.6637 35.5009L25.8728 35.8394H35.37H44.8672V26.89V17.9407L44.6481 17.8909C44.4192 17.8312 40.9647 17.1144 35.9075 16.0692C34.4541 15.7705 33.1699 15.5018 33.0504 15.4818L32.8215 15.4321L32.8016 10.6836L32.7717 5.94517L27.8439 4.11349C25.1361 3.11801 22.1297 2.00307 21.174 1.65466C20.2183 1.29629 19.1332 0.898098 18.7648 0.758728L18.0879 0.499905V7.85648ZM35.1609 18.6176C36.256 18.8366 37.6895 19.1352 38.3466 19.2746C39.0036 19.414 40.1285 19.6429 40.8353 19.7923L42.1295 20.061L42.1594 26.6113L42.1793 33.1516H37.5004H32.8215V25.6258C32.8215 18.5081 32.8314 18.1099 33.0007 18.1597C33.0903 18.1796 34.0659 18.3886 35.1609 18.6176Z" fill="black"/>
<path d="M35.2103 22.1513C35.2004 22.1812 35.2004 22.6789 35.2004 23.2662L35.1904 24.3413L37.4901 24.3712L39.7897 24.3911V23.2463V22.1015H37.5C36.2457 22.1015 35.2103 22.1214 35.2103 22.1513Z" fill="black"/>
<path d="M35.1907 28.2438C35.1708 28.8411 35.1708 29.3488 35.1907 29.3886C35.2106 29.4384 36.246 29.4683 37.5103 29.4683H39.79V28.3235V27.1787H37.5103H35.2206L35.1907 28.2438Z" fill="black"/>
<path d="M23.0654 10.803V11.9478H25.4049H27.7443V10.803V9.65816H25.4049H23.0654V10.803Z" fill="black"/>
<path d="M10.9471 15.462C10.8277 15.5914 10.7281 15.8203 10.7281 15.9597C10.7281 16.1289 10.6584 16.2584 10.5589 16.2982C10.4593 16.328 10.1209 16.4674 9.81226 16.6068L9.23486 16.8556V18.1796C9.23486 19.4339 9.2249 19.5136 9.01585 19.6529C8.71719 19.862 8.47827 19.852 8.23935 19.6131C8.07011 19.4439 8.04025 19.2846 8.04025 18.6176C8.04025 18.1796 8.00042 17.8213 7.95065 17.8213C7.75155 17.8213 6.71621 19.205 6.33792 19.9615C6.11891 20.3995 5.87003 21.0864 5.77048 21.4946C5.64106 22.062 5.55147 22.2412 5.39218 22.3009C5.15326 22.4005 5.05371 22.5896 5.05371 23.0077V23.2964H12.8187H20.5837V22.9082C20.5837 22.5796 20.5339 22.4801 20.285 22.3009C20.1058 22.1715 19.9864 22.0023 19.9864 21.8629C19.9864 21.5742 19.628 20.4891 19.3692 19.9615C19.0805 19.3941 18.3737 18.4285 17.9555 18.0303L17.5972 17.6819V18.3389C17.5972 19.0557 17.4578 19.3145 17.0695 19.3145C16.5618 19.3045 16.4324 19.0059 16.4125 17.8312C16.3926 16.7561 16.4125 16.786 15.4767 16.4276C14.7998 16.1688 14.5111 15.9697 14.5111 15.7706C14.5111 15.7009 14.4115 15.5516 14.2921 15.4321C14.093 15.2529 13.9436 15.233 12.6196 15.233C11.2259 15.233 11.1562 15.243 10.9471 15.462ZM13.0974 19.3941C13.2368 19.8122 13.2368 19.8122 13.7246 19.8122C14.3219 19.8122 14.3717 19.9814 13.864 20.3199C13.5952 20.4991 13.5255 20.6086 13.5653 20.7579C13.6848 21.176 13.7346 21.6041 13.6748 21.6041C13.635 21.6041 13.4558 21.4946 13.2766 21.3552C12.8685 21.0466 12.8685 21.0466 12.4006 21.3652C12.1915 21.5145 11.9924 21.6041 11.9526 21.5742C11.9227 21.5344 11.9526 21.3054 12.0223 21.0466C12.1517 20.5986 12.1517 20.5887 11.863 20.3498C11.7037 20.2204 11.5444 20.1208 11.5046 20.1109C11.4548 20.1109 11.425 20.0412 11.425 19.9615C11.425 19.852 11.5444 19.8122 11.9128 19.8122C12.3906 19.8122 12.4105 19.8023 12.53 19.4339C12.5897 19.2348 12.6694 19.0258 12.6893 18.986C12.7888 18.8167 12.9581 18.9959 13.0974 19.3941Z" fill="black"/>
<path d="M23.0654 16.6762V17.821H25.4049H27.7443V16.6762V15.5314H25.4049H23.0654V16.6762Z" fill="black"/>
<path d="M23.0654 22.4502V23.595H25.4049H27.7443V22.4502V21.3054H25.4049H23.0654V22.4502Z" fill="black"/>
<path d="M5.73339 24.5009C5.53429 24.8791 5.58406 25.347 5.87276 25.7552C6.02209 25.9742 6.14155 26.2728 6.14155 26.442C6.14155 26.8104 6.38047 27.1588 6.65921 27.1986C6.85832 27.2285 6.90809 27.338 7.05742 28.0746C7.66468 31.0511 10.1535 33.2013 12.9608 33.1914C14.5437 33.1814 15.798 32.6439 17.0026 31.4592C18.0678 30.404 18.5556 29.4583 18.9438 27.6267C19.0135 27.328 19.0932 27.2185 19.2823 27.1787C19.561 27.109 19.7801 26.7606 19.7801 26.3724C19.7801 26.233 19.8896 25.9742 20.0289 25.785C20.2977 25.4266 20.3575 24.8294 20.1783 24.4809C20.0787 24.3018 19.9493 24.2918 18.1673 24.2918H16.2659L16.8831 24.8493C17.2216 25.1579 17.5899 25.5859 17.6994 25.795C17.8687 26.1434 17.8786 26.2529 17.789 26.8502C17.4406 29.1 16.3555 30.7724 14.7428 31.5687C14.0957 31.8873 14.0061 31.9072 12.9608 31.9072C11.9155 31.9072 11.8259 31.8873 11.1788 31.5687C9.59597 30.7923 8.47104 29.1 8.13257 26.9497C8.01311 26.2429 8.02306 26.1733 8.23212 25.7352C8.43122 25.3271 8.60046 25.1479 9.42674 24.4909L9.67561 24.3018L7.76423 24.2918C5.91258 24.2918 5.84289 24.3018 5.73339 24.5009Z" fill="black"/>
<path d="M23.0654 28.3235V29.4683H25.4049H27.7443V28.3235V27.1787H25.4049H23.0654V28.3235Z" fill="black"/>
<path d="M12.3657 34.6149C11.9576 34.824 11.42 35.3516 11.42 35.5307C11.42 35.6104 11.5594 35.8294 11.7385 36.0086L12.0571 36.3371L11.868 37.9298C11.7684 38.8059 11.6589 39.5226 11.629 39.5226C11.5992 39.5127 10.9919 38.4475 10.2751 37.1335C9.56833 35.8194 8.9312 34.7244 8.86152 34.7045C8.67237 34.6249 1.86307 36.6258 1.55446 36.8448C1.40513 36.9543 1.2359 37.1832 1.17617 37.3624C1.11643 37.5317 0.847647 39.0348 0.558948 40.6873C0.110968 43.3552 0.0711477 43.7136 0.190609 43.9624C0.260295 44.1217 0.429532 44.3009 0.568903 44.3706C0.768006 44.4701 3.35634 44.5 12.8834 44.5H24.939L25.2476 44.2412C25.4666 44.062 25.5562 43.8928 25.5562 43.6937C25.5562 43.0964 24.5508 37.3724 24.4014 37.1633C24.3218 37.0339 24.1526 36.8647 24.0232 36.785C23.6449 36.5362 16.965 34.6547 16.7957 34.7543C16.7161 34.7941 16.069 35.8891 15.3523 37.1932C14.6454 38.4873 14.0481 39.5027 14.0382 39.4529C14.0183 39.3932 13.9187 38.6864 13.8291 37.8602L13.6499 36.3669L13.9784 35.9887C14.1576 35.7796 14.307 35.5606 14.307 35.4909C14.307 35.2321 13.2019 34.4457 12.8535 34.4457C12.744 34.4556 12.535 34.5253 12.3657 34.6149Z" fill="black"/>
</svg>
