<svg width="41" height="33" viewBox="0 0 41 33" fill="none" xmlns="http://www.w3.org/2000/svg">
<path d="M2.16699 7.33325L17.136 17.8116C18.3482 18.6601 18.9542 19.0843 19.6135 19.2486C20.1958 19.3938 20.8049 19.3938 21.3872 19.2486C22.0464 19.0843 22.6525 18.6601 23.8646 17.8116L38.8337 7.33325M10.967 31.1666H30.0337C33.1139 31.1666 34.6541 31.1666 35.8306 30.5671C36.8655 30.0398 37.7069 29.1984 38.2342 28.1635C38.8337 26.987 38.8337 25.4469 38.8337 22.3666V10.6333C38.8337 7.55296 38.8337 6.01282 38.2342 4.8363C37.7069 3.80141 36.8655 2.96002 35.8306 2.43272C34.6541 1.83325 33.1139 1.83325 30.0337 1.83325H10.967C7.8867 1.83325 6.34656 1.83325 5.17004 2.43272C4.13515 2.96002 3.29376 3.80141 2.76646 4.8363C2.16699 6.01282 2.16699 7.55296 2.16699 10.6333V22.3666C2.16699 25.4469 2.16699 26.987 2.76646 28.1635C3.29376 29.1984 4.13515 30.0398 5.17004 30.5671C6.34656 31.1666 7.8867 31.1666 10.967 31.1666Z" stroke="#182230" stroke-width="3" stroke-linecap="round" stroke-linejoin="round"/>
</svg>
