<svg width="153" height="33" viewBox="0 0 153 33" fill="none" xmlns="http://www.w3.org/2000/svg">
<g clip-path="url(#clip0_762_27260)">
<path d="M40.4961 28.8018L46.6632 14.551H50.239L56.3447 28.8018H52.9714L51.438 25.0554H45.2709L43.7376 28.8018H40.4961ZM46.2339 22.6793H50.5272L48.3805 17.4315L46.2339 22.6793Z" fill="#7030F1"/>
<path d="M56.834 28.8017V18.1953H59.7688V19.3615C60.1038 18.9103 60.5503 18.5444 61.069 18.2958C61.5877 18.0472 62.1627 17.9236 62.7435 17.9358C63.1671 17.9231 63.5877 18.0071 63.9702 18.1807V20.6239C63.7453 20.5247 63.5084 20.4522 63.2648 20.4081C63.004 20.3612 62.7391 20.3378 62.4736 20.3382C61.9224 20.3328 61.3807 20.4742 60.9096 20.7463C60.4269 21.0298 60.0347 21.433 59.7749 21.9125V28.793L56.834 28.8017Z" fill="#7030F1"/>
<path d="M72.8316 32.9447V27.968C71.9349 28.618 70.8341 28.962 69.7066 28.9447C68.6968 28.9566 67.7032 28.7023 66.8362 28.21C65.9888 27.7295 65.2847 27.0511 64.7907 26.2391C64.4092 25.6206 64.16 24.9365 64.0573 24.2262C63.9546 23.5159 64.0004 22.7933 64.1922 22.0998C64.3839 21.4064 64.7178 20.7558 65.1747 20.1853C65.6316 19.6148 66.2025 19.1358 66.8546 18.7756C67.7469 18.2886 68.7606 18.0389 69.7894 18.0525C70.8766 18.052 71.9411 18.3486 72.8561 18.9068V18.1954H75.748V32.9447H72.8316ZM70.1789 26.5511C70.6871 26.5566 71.1917 26.4705 71.6662 26.2974C72.1103 26.1296 72.5087 25.8685 72.8316 25.5336V21.4111C72.4954 21.0937 72.0947 20.8447 71.654 20.6794C71.1853 20.4998 70.6841 20.4097 70.1789 20.414C69.5978 20.4053 69.0246 20.542 68.5167 20.8105C68.0315 21.0707 67.6289 21.4504 67.3514 21.9097C67.0626 22.3895 66.9143 22.9342 66.9221 23.4869C66.9117 24.0267 67.0543 24.5592 67.3348 25.0285C67.6154 25.4979 68.0236 25.8868 68.5167 26.1546C69.0224 26.4295 69.5964 26.5705 70.1789 26.5627V26.5511Z" fill="#7030F1"/>
<path d="M81.8031 29.0058C81.0069 29.0197 80.2209 28.8337 79.5246 28.4664C78.8686 28.114 78.3274 27.5965 77.9605 26.9708C77.5755 26.2999 77.38 25.5455 77.3932 24.7813V18.1953H80.328V24.3644C80.3132 24.662 80.3615 24.9594 80.47 25.2388C80.5786 25.5183 80.7451 25.7742 80.9598 25.9912C81.1846 26.1991 81.452 26.3607 81.7453 26.466C82.0386 26.5713 82.3516 26.6181 82.6648 26.6035C83.1196 26.6087 83.5696 26.515 83.9804 26.3294C84.3654 26.1475 84.6972 25.8782 84.9465 25.5452V18.1953H87.8813V28.8017H84.9465V27.9475C84.0727 28.6582 82.9526 29.0353 81.8031 29.0058Z" fill="#7030F1"/>
<path d="M91.0569 16.9329C90.7238 16.9346 90.3976 16.8421 90.1198 16.6673C89.842 16.4924 89.6252 16.2429 89.4969 15.9506C89.3685 15.6584 89.3345 15.3364 89.399 15.0257C89.4636 14.7149 89.6238 14.4295 89.8594 14.2055C90.095 13.9815 90.3953 13.8292 90.7221 13.7678C91.049 13.7065 91.3876 13.7388 91.6951 13.8608C92.0025 13.9828 92.2649 14.189 92.4489 14.453C92.6328 14.7171 92.7301 15.0272 92.7283 15.3439C92.7308 15.5517 92.6895 15.7578 92.6068 15.9501C92.5241 16.1424 92.4017 16.3169 92.2468 16.4635C92.0935 16.6158 91.9085 16.7362 91.7037 16.817C91.4989 16.8978 91.2786 16.9372 91.0569 16.9329ZM89.6002 28.8017V18.1953H92.535V28.8017H89.6002Z" fill="#7030F1"/>
<path d="M94.4531 28.8018V14.551H98.4398L102.534 22.2449L106.646 14.551H110.633V28.8018H107.701V18.3061L102.488 27.7726L97.3051 18.2653V28.7901L94.4531 28.8018Z" fill="#7030F1"/>
<path d="M115.896 28.9854C115.165 28.9994 114.44 28.858 113.773 28.5714C113.193 28.3148 112.697 27.9114 112.341 27.4052C111.995 26.9046 111.817 26.3161 111.829 25.7172C111.807 25.2573 111.906 24.7995 112.117 24.3851C112.328 23.9708 112.644 23.6129 113.037 23.344C113.843 22.7823 114.953 22.5005 116.368 22.4985C117.301 22.4928 118.228 22.6377 119.109 22.9271V22.1574C119.127 21.8976 119.081 21.6376 118.974 21.3977C118.868 21.1579 118.704 20.9449 118.496 20.7755C117.986 20.4308 117.366 20.265 116.742 20.3061C116.223 20.3104 115.707 20.382 115.209 20.5189C114.565 20.6975 113.934 20.9187 113.323 21.1807L112.252 19.1399C113.07 18.7834 113.92 18.4975 114.792 18.2857C115.586 18.0951 116.401 17.9972 117.22 17.9941C118.719 17.9941 119.886 18.3372 120.723 19.0233C121.559 19.7094 121.976 20.6812 121.974 21.9387V28.8192H119.109V28.0495C118.665 28.3679 118.164 28.6088 117.631 28.7609C117.067 28.9149 116.483 28.9905 115.896 28.9854ZM114.611 25.6559C114.607 25.8491 114.657 26.0398 114.755 26.2091C114.853 26.3783 114.995 26.5203 115.169 26.621C115.613 26.8786 116.128 27.0036 116.647 26.9796C117.103 26.9833 117.558 26.9244 117.996 26.8046C118.397 26.6962 118.774 26.5204 119.109 26.2857V24.7492C118.749 24.6183 118.376 24.5207 117.996 24.4577C117.592 24.3876 117.181 24.3535 116.77 24.3557C116.219 24.3259 115.671 24.4495 115.193 24.7113C115.018 24.8071 114.872 24.9446 114.77 25.1102C114.668 25.2758 114.613 25.4639 114.611 25.6559Z" fill="#7030F1"/>
<path d="M128.616 28.9651C127.375 28.9651 126.437 28.6969 125.801 28.1604C125.165 27.624 124.847 26.8397 124.847 25.8077V20.5161H122.557V18.1838H124.847V15.487L127.782 14.8689V18.1954H130.972V20.5278H127.782V25.2508C127.763 25.4387 127.783 25.6284 127.842 25.8086C127.901 25.9889 127.998 26.1561 128.126 26.3004C128.353 26.5103 128.739 26.6153 129.325 26.6153C129.587 26.6169 129.848 26.5993 130.107 26.5628C130.373 26.5226 130.635 26.4581 130.889 26.3704V28.659C130.522 28.7678 130.145 28.843 129.763 28.8835C129.383 28.9336 129 28.9609 128.616 28.9651Z" fill="#7030F1"/>
<path d="M137.034 29.0059C135.991 29.0186 134.964 28.768 134.056 28.2799C133.184 27.8118 132.46 27.1303 131.959 26.3062C131.57 25.6782 131.316 24.9833 131.211 24.2616C131.106 23.5399 131.152 22.8055 131.347 22.1009C131.542 21.3963 131.882 20.7353 132.347 20.1561C132.812 19.5768 133.393 19.0908 134.056 18.726C134.962 18.2329 135.99 17.9802 137.034 17.9942C137.906 17.9918 138.769 18.1585 139.57 18.484C140.365 18.8011 141.078 19.2797 141.659 19.8863L139.858 21.6997C139.496 21.302 139.056 20.9735 138.564 20.7318C138.109 20.5175 137.607 20.4068 137.098 20.4082C136.556 20.4005 136.024 20.5422 135.565 20.8164C135.114 21.0886 134.746 21.4673 134.495 21.9155C134.235 22.403 134.099 22.9418 134.099 23.4884C134.099 24.0349 134.235 24.5738 134.495 25.0613C134.748 25.518 135.131 25.8986 135.599 26.1604C136.073 26.4249 136.613 26.562 137.163 26.5569C137.647 26.5601 138.126 26.4605 138.564 26.2653C139.033 26.0471 139.457 25.7509 139.815 25.3907L141.573 27.14C140.99 27.7289 140.286 28.1988 139.506 28.5211C138.726 28.8434 137.885 29.0113 137.034 29.0146V29.0059Z" fill="#7030F1"/>
<path d="M142.516 28.8017V14.551L145.45 13.9387V19.0699C146.31 18.3443 147.429 17.9584 148.578 17.9912C149.382 17.9759 150.175 18.1619 150.878 18.5306C151.532 18.8785 152.069 19.3936 152.43 20.0174C152.814 20.6948 153.006 21.4553 152.988 22.2244V28.8017H150.054V22.6326C150.072 22.3344 150.027 22.0358 149.921 21.7543C149.816 21.4729 149.652 21.2144 149.44 20.9941C149.214 20.791 148.947 20.6342 148.655 20.5334C148.362 20.4326 148.052 20.3899 147.741 20.4081C147.282 20.3991 146.827 20.493 146.413 20.6822C146.03 20.8656 145.7 21.1348 145.45 21.4664V28.8017H142.516Z" fill="#7030F1"/>
<path d="M0.0889339 28.8018H8.06845V8.25952L0 13.3761L0.0889339 28.8018Z" fill="#7030F1"/>
<path d="M37.1369 28.8017H29.1543V8.89209L37.2258 13.8513L37.1369 28.8017Z" fill="#7030F1"/>
<path d="M27.499 28.8016H19.5195V8.89201L27.588 5.07568L27.499 28.8016Z" fill="#7030F1"/>
<path d="M26.3928 4.06997L17.7049 8.3965V28.8017H9.72228L9.60881 5.63848L9.59961 4.25948L9.64561 4.23907L18.3182 0L26.3928 4.06997Z" fill="#7030F1"/>
<path d="M8.55891 19.7406L0.214463 28.0613C0.15174 28.1232 0.109631 28.2014 0.0934012 28.286C0.0771717 28.3706 0.0875428 28.4579 0.123217 28.5369C0.158892 28.616 0.218286 28.6832 0.293971 28.7303C0.369655 28.7775 0.45827 28.8023 0.548732 28.8018H17.2407C17.3309 28.8017 17.4191 28.7765 17.4943 28.7291C17.5695 28.6818 17.6284 28.6145 17.6637 28.5356C17.699 28.4567 17.7092 28.3696 17.6928 28.2853C17.6765 28.201 17.6344 28.123 17.5719 28.0613L9.22745 19.7406C9.18423 19.6977 9.13234 19.6636 9.07489 19.6403C9.01745 19.617 8.95564 19.605 8.89318 19.605C8.83073 19.605 8.76892 19.617 8.71148 19.6403C8.65403 19.6636 8.60214 19.6977 8.55891 19.7406Z" fill="#7030F1"/>
<path d="M27.9925 19.7406L19.648 28.0613C19.5855 28.1231 19.5435 28.201 19.5271 28.2853C19.5108 28.3696 19.5209 28.4567 19.5562 28.5356C19.5915 28.6145 19.6504 28.6818 19.7256 28.7292C19.8009 28.7765 19.8891 28.8017 19.9793 28.8018H36.6712C36.7617 28.8023 36.8503 28.7775 36.926 28.7304C37.0017 28.6833 37.0611 28.616 37.0967 28.5369C37.1324 28.4579 37.1428 28.3706 37.1266 28.286C37.1103 28.2014 37.0682 28.1232 37.0055 28.0613L28.658 19.7406C28.615 19.6978 28.5634 19.6637 28.5062 19.6405C28.449 19.6172 28.3874 19.6052 28.3252 19.6052C28.263 19.6052 28.2015 19.6172 28.1443 19.6405C28.0871 19.6637 28.0355 19.6978 27.9925 19.7406Z" fill="#7030F1"/>
</g>
<defs>
<clipPath id="clip0_762_27260">
<rect width="153" height="33" fill="white"/>
</clipPath>
</defs>
</svg>
