<svg width="25" height="24" viewBox="0 0 25 24" fill="none" xmlns="http://www.w3.org/2000/svg">
<path d="M19.2198 16.83L19.6098 19.99C19.7098 20.82 18.8198 21.4 18.1098 20.97L13.9198 18.48C13.4598 18.48 13.0099 18.45 12.5699 18.39C13.3099 17.52 13.7498 16.42 13.7498 15.23C13.7498 12.39 11.2898 10.09 8.24985 10.09C7.08985 10.09 6.01985 10.42 5.12985 11C5.09985 10.75 5.08984 10.5 5.08984 10.24C5.08984 5.68999 9.03985 2 13.9198 2C18.7998 2 22.7498 5.68999 22.7498 10.24C22.7498 12.94 21.3598 15.33 19.2198 16.83Z" stroke="#182230" stroke-width="1.5" stroke-linecap="round" stroke-linejoin="round"/>
<path d="M13.75 15.23C13.75 16.42 13.31 17.5201 12.57 18.3901C11.58 19.5901 10.01 20.36 8.25 20.36L5.64 21.91C5.2 22.18 4.64 21.81 4.7 21.3L4.95 19.3301C3.61 18.4001 2.75 16.91 2.75 15.23C2.75 13.47 3.69 11.9201 5.13 11.0001C6.02 10.4201 7.09 10.0901 8.25 10.0901C11.29 10.0901 13.75 12.39 13.75 15.23Z" stroke="#182230" stroke-width="1.5" stroke-linecap="round" stroke-linejoin="round"/>
</svg>
