<svg width="25" height="24" viewBox="0 0 25 24" fill="none" xmlns="http://www.w3.org/2000/svg">
<path d="M10.7676 21C10.9431 21.304 11.1956 21.5565 11.4996 21.732C11.8037 21.9075 12.1485 21.9999 12.4996 21.9999C12.8506 21.9999 13.1955 21.9075 13.4995 21.732C13.8036 21.5565 14.056 21.304 14.2316 21" stroke="black" stroke-width="1.5" stroke-linecap="round" stroke-linejoin="round"/>
<path d="M3.76127 15.326C3.63063 15.4692 3.54442 15.6472 3.51312 15.8385C3.48183 16.0298 3.50679 16.226 3.58498 16.4034C3.66316 16.5807 3.7912 16.7316 3.95352 16.8375C4.11585 16.9434 4.30545 16.9999 4.49927 17H20.4993C20.6931 17.0001 20.8827 16.9438 21.0451 16.8381C21.2076 16.7324 21.3358 16.5817 21.4142 16.4045C21.4926 16.2273 21.5178 16.0311 21.4867 15.8398C21.4557 15.6485 21.3697 15.4703 21.2393 15.327C19.9093 13.956 18.4993 12.499 18.4993 8C18.4993 6.4087 17.8671 4.88258 16.7419 3.75736C15.6167 2.63214 14.0906 2 12.4993 2C10.908 2 9.38185 2.63214 8.25663 3.75736C7.13141 4.88258 6.49927 6.4087 6.49927 8C6.49927 12.499 5.08827 13.956 3.76127 15.326Z" stroke="black" stroke-width="1.5" stroke-linecap="round" stroke-linejoin="round"/>
</svg>
