<svg width="45" height="45" viewBox="0 0 45 45" fill="none" xmlns="http://www.w3.org/2000/svg">
<path fill-rule="evenodd" clip-rule="evenodd" d="M11.0102 4.24515C13.2414 2.02682 16.9154 2.42098 18.7836 4.91798L21.0972 8.00532C22.6189 10.0366 22.4832 12.8746 20.6774 14.6695L20.2411 15.1058C20.1916 15.289 20.1866 15.4813 20.2264 15.6668C20.3419 16.4148 20.9671 17.9988 23.5851 20.6021C26.2031 23.2055 27.7981 23.8288 28.5571 23.9461C28.7483 23.9846 28.9458 23.979 29.1346 23.9296L29.8826 23.1853C31.4886 21.5903 33.9526 21.2915 35.9399 22.3713L39.4416 24.278C42.4427 25.906 43.1999 29.9833 40.7432 32.4272L38.1381 35.0158C37.3167 35.8316 36.2131 36.5118 34.8674 36.6383C31.5491 36.9482 23.8179 36.5522 15.6907 28.4727C8.10622 20.9303 6.65056 14.3523 6.46539 11.111C6.37372 9.47198 7.14739 8.08598 8.13372 7.10698L11.0102 4.24515ZM16.5836 6.56615C15.6541 5.32498 13.9234 5.22598 12.9481 6.19582L10.0697 9.05582C9.46472 9.65715 9.17506 10.3208 9.21172 10.9551C9.35839 13.531 10.5317 19.4655 17.6304 26.5238C25.0774 33.9268 31.9542 34.1487 34.6126 33.8993C35.1552 33.8498 35.6942 33.5675 36.1984 33.067L38.8017 30.4765C39.8614 29.4241 39.6286 27.5065 38.1289 26.6925L34.6272 24.7876C33.6592 24.2633 32.5262 24.4356 31.8222 25.136L30.9881 25.9665L30.0164 24.9911C30.9881 25.9665 30.9862 25.9683 30.9844 25.9683L30.9826 25.972L30.9771 25.9775L30.9642 25.9885L30.9367 26.0141C30.8594 26.086 30.7759 26.151 30.6874 26.2085C30.5407 26.3056 30.3464 26.4138 30.1026 26.5036C29.6076 26.6888 28.9512 26.7878 28.1409 26.6631C26.5514 26.4193 24.4449 25.3358 21.6454 22.5528C18.8477 19.7698 17.7551 17.6761 17.5094 16.0885C17.3829 15.2781 17.4837 14.6218 17.6707 14.1268C17.7736 13.8483 17.921 13.5882 18.1071 13.3568L18.1657 13.2926L18.1914 13.2651L18.2024 13.2541L18.2079 13.2486L18.2116 13.245L18.7396 12.7206C19.5242 11.9378 19.6342 10.6416 18.8954 9.65348L16.5836 6.56615Z" fill="black"/>
</svg>
