<svg width="35" height="44" viewBox="0 0 35 44" fill="none" xmlns="http://www.w3.org/2000/svg">
<path d="M15.2902 0.239985C15.0334 0.368418 14.7508 0.582473 14.6652 0.702344C14.5025 0.924961 14.5025 0.924961 14.9734 3.59637C15.3074 5.48006 15.4187 6.32771 15.3673 6.47327C15.1875 6.93563 14.5967 7.08119 14.2114 6.74726C14.0059 6.57602 13.9631 6.38765 13.5949 4.28991C13.3809 3.03983 13.1754 1.98668 13.1411 1.95243C12.9699 1.76406 11.3516 2.91139 10.5211 3.7933C9.23676 5.17182 8.4576 6.66164 8.08943 8.49395C7.99524 8.94775 7.91818 9.49573 7.91818 9.70979C7.91818 10.2835 7.86681 10.352 7.42157 10.4204C6.58248 10.5403 6.12012 11.0455 6.12012 11.8418C6.12012 12.2271 6.16293 12.3726 6.36842 12.6552C6.82222 13.2802 6.06018 13.2374 17.5079 13.2374C27.4229 13.2374 27.8339 13.2289 28.1507 13.0747C28.5959 12.8521 28.8357 12.4839 28.8785 11.9531C28.9555 10.9941 28.3904 10.4547 27.2174 10.3776C27.1575 10.3691 27.1061 10.0437 27.0718 9.52998C26.9348 7.38087 25.8303 5.04338 24.2121 3.51075C23.313 2.64596 22.0201 1.78974 21.8746 1.95243C21.8403 1.98668 21.6348 3.03983 21.4122 4.28991C21.0526 6.38765 21.0098 6.57602 20.8043 6.74726C20.419 7.08119 19.8282 6.93563 19.6484 6.46471C19.5885 6.31915 19.6998 5.50574 20.0423 3.59637C20.5132 0.933523 20.5132 0.924961 20.3505 0.702344C20.2649 0.582473 20.0166 0.385542 19.8111 0.265672C19.4429 0.0601788 19.3744 0.0516157 17.5935 0.0259295L15.7526 0.000243187L15.2902 0.239985Z" fill="black"/>
<path d="M8.27891 15.7797C8.44159 18.3826 9.59749 20.9255 11.4897 22.8863C12.7227 24.1535 13.9728 24.9412 15.5054 25.4036C16.1733 25.6091 16.4045 25.6348 17.5004 25.6348C18.6049 25.6348 18.8276 25.6176 19.4954 25.4121C20.9167 24.9755 22.0555 24.2905 23.22 23.1774C25.2835 21.1995 26.5336 18.5196 26.7219 15.7112L26.7733 14.9063H17.5004H8.22754L8.27891 15.7797Z" fill="black"/>
<path d="M9.53992 25.9949C7.61342 26.5 5.99517 27.3477 4.44541 28.6663C1.92812 30.8068 0.301296 34.2745 0.258485 37.5538C0.249923 38.4357 0.267047 38.5299 0.498227 38.9837C1.61131 41.1842 5.96948 42.9652 12.0658 43.7101C14.7286 44.0354 19.1039 44.0954 21.6983 43.8471C28.3597 43.2049 33.1887 41.3811 34.4645 39.0351C34.7471 38.5042 34.7556 38.4786 34.7385 37.5453C34.7385 37.023 34.6614 36.2524 34.593 35.8328C33.6768 30.8582 30.0207 27.0394 25.0975 25.9092L24.5067 25.7722L23.8559 26.1918C22.0579 27.3391 20.3626 27.87 18.1878 27.947C15.3879 28.0583 13.333 27.5617 11.2952 26.2774C10.8585 26.0034 10.4646 25.7808 10.4218 25.7808C10.3876 25.7894 9.98516 25.8835 9.53992 25.9949Z" fill="black"/>
</svg>
