<svg width="25" height="24" viewBox="0 0 25 24" fill="none" xmlns="http://www.w3.org/2000/svg">
<path d="M11.257 21H9.855C6.27 21 4.478 21 3.364 19.865C2.25 18.73 2.25 16.903 2.25 13.25C2.25 9.597 2.25 7.77 3.364 6.635C4.478 5.5 6.27 5.5 9.855 5.5H13.658C17.243 5.5 19.036 5.5 20.15 6.635C21.007 7.508 21.204 8.791 21.25 11" stroke="#182230" stroke-width="1.5" stroke-linecap="round" stroke-linejoin="round"/>
<path d="M16.25 5.5L16.15 5.19C15.655 3.65 15.408 2.88 14.819 2.44C14.229 2 13.447 2 11.88 2H11.617C10.052 2 9.269 2 8.68 2.44C8.09 2.88 7.843 3.65 7.348 5.19L7.25 5.5M17.361 13.255C17.546 13.085 17.638 13 17.75 13C17.862 13 17.954 13.085 18.139 13.255L18.852 13.912C18.938 13.991 18.981 14.031 19.034 14.05C19.088 14.07 19.146 14.068 19.264 14.063L20.226 14.025C20.474 14.015 20.598 14.011 20.683 14.082C20.768 14.153 20.785 14.276 20.818 14.522L20.95 15.508C20.966 15.622 20.973 15.678 21.001 15.728C21.029 15.776 21.074 15.811 21.164 15.882L21.94 16.492C22.132 16.644 22.228 16.719 22.247 16.827C22.266 16.935 22.201 17.039 22.073 17.247L21.547 18.094C21.487 18.191 21.457 18.24 21.447 18.294C21.437 18.348 21.449 18.405 21.473 18.517L21.682 19.495C21.732 19.735 21.758 19.855 21.703 19.951C21.648 20.047 21.531 20.085 21.298 20.161L20.372 20.462C20.262 20.498 20.206 20.516 20.163 20.552C20.12 20.589 20.093 20.641 20.04 20.744L19.588 21.615C19.473 21.838 19.415 21.949 19.31 21.987C19.205 22.025 19.09 21.977 18.858 21.881L17.97 21.513C17.861 21.468 17.807 21.445 17.75 21.445C17.693 21.445 17.639 21.468 17.53 21.513L16.642 21.881C16.41 21.977 16.295 22.025 16.19 21.987C16.085 21.949 16.027 21.837 15.912 21.615L15.46 20.744C15.406 20.641 15.38 20.589 15.337 20.553C15.294 20.517 15.238 20.498 15.128 20.463L14.202 20.161C13.969 20.085 13.852 20.047 13.797 19.951C13.742 19.855 13.767 19.736 13.818 19.495L14.028 18.517C14.051 18.405 14.063 18.349 14.053 18.295C14.0325 18.2227 13.9986 18.1548 13.953 18.095L13.428 17.247C13.298 17.039 13.234 16.935 13.253 16.827C13.272 16.719 13.368 16.644 13.56 16.493L14.336 15.883C14.426 15.811 14.471 15.776 14.499 15.727C14.527 15.678 14.534 15.622 14.549 15.507L14.682 14.522C14.715 14.277 14.732 14.153 14.817 14.082C14.902 14.011 15.026 14.015 15.274 14.025L16.237 14.063C16.354 14.068 16.412 14.07 16.466 14.05C16.519 14.03 16.562 13.991 16.648 13.912L17.361 13.255Z" stroke="#182230" stroke-width="1.5" stroke-linecap="round" stroke-linejoin="round"/>
</svg>
