<svg width="34" height="34" viewBox="0 0 34 34" fill="none" xmlns="http://www.w3.org/2000/svg">
<path d="M12.0423 26.9166H11.334C5.66732 26.9166 2.83398 25.4999 2.83398 18.4166V11.3333C2.83398 5.66659 5.66732 2.83325 11.334 2.83325H22.6673C28.334 2.83325 31.1673 5.66659 31.1673 11.3333V18.4166C31.1673 24.0833 28.334 26.9166 22.6673 26.9166H21.959C21.5198 26.9166 21.0948 27.1291 20.8257 27.4833L18.7007 30.3166C17.7657 31.5633 16.2357 31.5633 15.3007 30.3166L13.1757 27.4833C12.949 27.1716 12.4248 26.9166 12.0423 26.9166Z" stroke="#292D32" stroke-width="1.88889" stroke-miterlimit="10" stroke-linecap="round" stroke-linejoin="round"/>
<path d="M9.91602 11.3333H24.0827" stroke="#292D32" stroke-width="1.88889" stroke-linecap="round" stroke-linejoin="round"/>
<path d="M9.91602 18.4167H18.416" stroke="#292D32" stroke-width="1.88889" stroke-linecap="round" stroke-linejoin="round"/>
</svg>
